<svg xmlns="http://www.w3.org/2000/svg" viewBox="0 0 512 512" width="512" height="512">
  <defs>
    <linearGradient id="bgGradient512" x1="0%" y1="0%" x2="100%" y2="100%">
      <stop offset="0%" style="stop-color:#6366f1;stop-opacity:1" />
      <stop offset="100%" style="stop-color:#8b5cf6;stop-opacity:1" />
    </linearGradient>
  </defs>
  
  <!-- Background with gradient -->
  <rect width="512" height="512" rx="120" fill="url(#bgGradient512)"/>
  
  <!-- Finance Bag -->
  <g transform="translate(256, 256)">
    <!-- Bag body -->
    <path d="M -93 -40 L -93 70 Q -93 110 -50 110 L 50 110 Q 93 110 93 70 L 93 -40 Z" 
          fill="#ffffff" stroke="#d8b4fe" stroke-width="6" stroke-linejoin="round"/>
    
    <!-- Bag handle -->
    <path d="M -50 -40 Q -50 -110 0 -110 Q 50 -110 50 -40" 
          fill="none" stroke="#d8b4fe" stroke-width="12" stroke-linecap="round" stroke-linejoin="round"/>
    
    <!-- Dollar sign inside bag -->
    <g transform="translate(0, 25)">
      <line x1="0" y1="-35" x2="0" y2="35" stroke="url(#bgGradient512)" stroke-width="8" stroke-linecap="round"/>
      <path d="M -22 -24 Q -22 -38 0 -38 Q 22 -38 22 -24 Q 22 -10 0 0" 
            fill="none" stroke="url(#bgGradient512)" stroke-width="8" stroke-linecap="round" stroke-linejoin="round"/>
      <path d="M 22 0 Q 22 14 0 14 Q -22 14 -22 0 Q -22 -8 0 8" 
            fill="none" stroke="url(#bgGradient512)" stroke-width="8" stroke-linecap="round" stroke-linejoin="round"/>
    </g>
  </g>
  
  <!-- Decorative accent circles -->
  <circle cx="100" cy="100" r="32" fill="#c4b5fd" opacity="0.6"/>
  <circle cx="412" cy="412" r="32" fill="#c4b5fd" opacity="0.6"/>
</svg>
